<?xml version="1.0" encoding="UTF-8"?>
<!DOCTYPE svg PUBLIC "-//W3C//DTD SVG 1.1//EN" "http://www.w3.org/Graphics/SVG/1.1/DTD/svg11.dtd">
<!-- Creator: CorelDRAW 2018 (64-Bit Evaluation Version) -->
<svg xmlns="http://www.w3.org/2000/svg" xml:space="preserve" width="300mm" height="300mm" version="1.1" style="shape-rendering:geometricPrecision; text-rendering:geometricPrecision; image-rendering:optimizeQuality; fill-rule:evenodd; clip-rule:evenodd"
viewBox="0 0 30000 30000"
 xmlns:xlink="http://www.w3.org/1999/xlink">
 <defs>
  <style type="text/css">
   <![CDATA[
    .str0 {stroke:black;stroke-width:1000;stroke-miterlimit:22.9256}
    .fil7 {fill:none}
    .fil6 {fill:#FEFEFE}
    .fil1 {fill:black}
    .fil4 {fill:#BC870B}
    .fil9 {fill:#CA0F12}
    .fil2 {fill:#D69C21}
    .fil5 {fill:#F9B628}
    .fil10 {fill:#FF2F30}
    .fil3 {fill:#FFD23E}
    .fil8 {fill:#FFF49F}
    .fil0 {fill:white}
    .fil11 {fill:#FEFEFE;fill-rule:nonzero}
    .fil12 {fill:#FEFEFE;fill-rule:nonzero}
   ]]>
  </style>
 </defs>
 <g id="Layer_x0020_1">
  <metadata id="CorelCorpID_0Corel-Layer"/>
  <path class="fil0" d="M4719.58 3301.36l10280.42 0 0 23225.8 -4123.55 0 0 -2240.46 180.43 0c252.88,-1506.93 1333.94,-2852.42 1607.52,-4152.26 -351.92,-98.18 -996.46,-445.59 -1374.28,-730.16l-743.92 747 -1900.63 -1900.63 698.41 -698.42 -8414.88 656.73 3011.93 -3891.66 -2324.14 -2157.14 4631.77 -991.03c-11.08,-437.77 1412.54,-755.26 1864.14,-701.45l-3393.22 -1959.09 0 -5207.23zm20560.83 0l-10280.41 0 0 23225.8 4123.54 0 0 -2240.46 -180.43 0c-252.88,-1506.93 -1333.94,-2852.42 -1607.52,-4152.26 351.92,-98.18 996.46,-445.59 1374.28,-730.16l743.92 747 1900.63 -1900.63 -698.41 -698.42 8414.88 656.73 -3011.93 -3891.66 2324.14 -2157.14 -4631.77 -991.03c11.08,-437.77 -1412.54,-755.26 -1864.14,-701.45l3393.22 -1959.09 0 -5207.23z"/>
  <circle class="fil1" cx="15000" cy="14000" r="4500"/>
  <g id="outline_1">
   <path class="fil1" d="M5116.06 3686.44l9889.07 0 0 22443.1 -3732.2 0 0 -1457.77 241.44 -0.19c-10.14,-1729.29 1559.78,-2770.17 2057,-6683.99l-213.21 -0.52 1.24 -899.94 -451.64 -505.16 -4111.37 -4533.15 -170.18 -1741.09 -3510.15 -2023.32 0 -4597.97zm19767.87 0l-9889.07 0 0 22443.1 3732.2 0 0 -1457.77 -241.44 -0.19c10.14,-1729.29 -1559.78,-2770.17 -2057,-6683.99l213.21 -0.52 -1.24 -899.94 451.64 -505.16 4111.37 -4533.15 170.18 -1741.09 3510.15 -2023.32 0 -4597.97zm-9889.07 0l10.27 0 0 389.21 -10.27 0 0 -389.21zm0.01 22100.55l10.26 0 0 342.55 -10.26 0 0 -342.55z"/>
  </g>
  <g id="cup_bottom">
   <polygon class="fil2" points="11575.71,25786.99 18424.28,25786.99 18424.28,25004.29 18130.77,25004.29 15000,23450.8 11869.22,25004.29 11575.71,25004.29 "/>
   <path class="fil3" d="M15000 17762.61l0 7241.68 -3130.78 0c-19.25,-2444.37 1525.03,-2622.89 2054.57,-7241.68l1076.21 0zm0 0l0 7241.68 3130.77 0c19.25,-2444.37 -1525.03,-2621.12 -2054.57,-7239.92l-1076.2 -1.76z"/>
   <polygon class="fil4" points="16956.73,25786.99 18424.28,25786.99 18424.28,25004.29 16956.73,25004.29 "/>
   <path class="fil5" d="M15587.1 17764.02c145.95,2703.23 1363.47,5137.59 1369.63,7240.27l1174.04 0c19.25,-2444.37 -1525.03,-2621.12 -2054.57,-7239.92l-489.1 -0.35z"/>
   <polygon class="fil6" points="13043.26,23450.8 13181.2,23900.15 13630.28,23899.24 13266.46,24176.05 13406.06,24624.84 13043.26,24346.57 12680.46,24624.84 12820.05,24176.05 12456.24,23899.24 12905.32,23900.15 "/>
   <polygon class="fil6" points="16956.73,23450.8 17094.67,23900.15 17543.75,23899.24 17179.94,24176.05 17319.53,24624.84 16956.73,24346.57 16593.93,24624.84 16733.53,24176.05 16369.71,23899.24 16818.79,23900.15 "/>
   <polygon class="fil6" points="15000,23450.8 15137.94,23900.15 15587.02,23899.24 15223.2,24176.05 15362.79,24624.84 15000,24346.57 14637.2,24624.84 14776.79,24176.05 14412.97,23899.24 14862.05,23900.15 "/>
  </g>
  <g id="ring">
   <polygon class="fil1" points="14076,19796.83 15028.59,19113.44 15981.2,19796.83 15981.2,21080.77 14076,21080.77 "/>
   <polygon class="fil1" points="18526.34,18759.35 18716.7,17602.53 19873.53,17412.17 20781.41,18320.05 19434.23,19667.23 "/>
   <polygon class="fil1" points="10106.91,17336.49 11263.73,17526.85 11454.1,18683.68 10546.21,19591.56 9199.03,18244.38 "/>
   <circle class="fil7 str0" cx="15028.6" cy="13815.98" r="5772.37"/>
  </g>
  <g id="cup_top">
   <polygon class="fil2" points="24490.16,4075.65 20968.04,4075.65 17935.1,6715.8 20968.04,9945.86 24490.16,7989.12 "/>
   <polygon class="fil2" points="5509.83,4075.65 9031.95,4075.65 12064.89,6715.8 9031.95,9945.86 5509.83,7989.12 "/>
   <path class="fil3" d="M9031.95 9945.86l5968.05 0 0 7264.28 -1369.75 -149.02 0.03 -88.84c-2330.07,-2365.98 -4660.12,-4080.59 -4598.33,-7026.42zm11936.09 0l-5968.04 0 0 7264.28 1369.71 -155.08 0 -82.78c2330.07,-2365.98 4660.12,-4080.59 4598.33,-7026.42zm-11936.09 -5870.21l11936.09 0 0 5870.21 -11936.09 0 0 -5870.21z"/>
   <polygon class="fil2" points="13630.28,16972.28 16369.71,16972.28 16369.71,17821.34 13629.96,17820.01 "/>
   <polygon class="fil4" points="15586.69,16972.28 16369.71,16972.28 16369.71,17821.35 15590.33,17820.97 "/>
   <polygon class="fil8" points="9618.97,4662.67 12554.08,4662.67 9618.97,10141.53 "/>
   <path class="fil5" d="M20968.04 4075.65l-1761.06 0 0 5870.21 1761.12 0.01 -0.06 -5870.22zm0.06 5870.22c-259.37,0 -1501.76,-0.01 -1761.12,-0.01 -12.22,3175.23 -1361.15,4451.74 -3620.29,7026.42l783.02 0c2330.07,-2365.98 4660.18,-4080.58 4598.39,-7026.41z"/>
   <polygon class="fil1" points="6879.54,5249.69 9031.95,5249.69 9031.95,8576.14 6879.54,7402.1 "/>
   <polygon class="fil1" points="23120.45,5249.69 20968.04,5249.69 20968.04,8576.14 23120.45,7402.1 "/>
  </g>
  <g id="outline_0">
   <path class="fil1" d="M2434.94 12381.11l4225.51 -906.89 3.93 -231.96c6.48,-381.88 3447.98,-775.74 8335.62,-726.39l0 5933.45c-1986.38,33.67 -4267.42,18.49 -6359.9,235.53l471.61 488.03 -7330.56 569.9 2688.54 -3476.89 -2034.75 -1884.78zm25130.11 0l-4225.51 -906.89 -3.93 -231.96c-6.48,-381.88 -3447.98,-775.74 -8335.61,-726.39l0 5933.45c1986.37,33.67 4267.41,18.49 6359.89,235.53l-471.61 488.03 7330.56 569.9 -2688.54 -3476.89 2034.75 -1884.78z"/>
  </g>
  <g id="red">
   <polygon class="fil9" points="3218.21,12548.48 6927.42,11839.77 6927.42,11543.44 7291.78,11872.38 6953.07,16605.6 7931.83,16837.82 2868.23,17111.89 4968.08,14160.68 "/>
   <polygon class="fil9" points="26781.78,12548.48 23072.57,11839.77 23072.57,11543.44 22708.21,11872.38 23046.92,16605.6 22068.16,16837.82 27131.76,17111.89 25031.91,14160.68 "/>
   <path class="fil10" d="M23072.57 11543.44c-380.04,-229.01 -1374.56,-655.14 -8072.57,-693.1l0 5081.59c6221.48,86.23 6653.46,292.93 8072.57,693.1l0 -5081.59zm-16145.15 0c380.04,-229.01 1374.56,-655.14 8072.58,-693.1l0 5081.59c-6221.49,86.23 -6653.47,292.93 -8072.58,693.1l0 -5081.59z"/>
  </g>
  <g id="zse">
   <polygon class="fil1" points="16161.19,4999.5 16704.8,4999.5 14230.1,8142.1 16236.58,8185.23 14998.9,10045.83 15493.35,10045.83 14758.95,10682.31 14188.67,10045.83 14572.35,10045.83 15632.45,8563.23 13546.99,8438.06 "/>
   <rect class="fil1" x="11996.41" y="6715.8" width="5870.21" height="3130.78"/>
   <path class="fil11" d="M10223.2 11508.46l1926.87 -83.64 497.57 383.97 43.67 1006.28 -954.69 243.26 -34.96 -805.79 -960.01 41.67 104.89 2416.4 959.99 -41.67 -20.48 -471.96 954.78 -241.35 46.72 1076.3 -462.56 422.76 -1926.87 83.64 -497.44 -381.1 -139.91 -3223.13 462.43 -425.64zm2998.77 -106.23l1444.75 -10.99 6.14 807.47 -241.94 1.84 18.41 2418.6 964.32 -7.33 -18.4 -2418.6 -241.95 1.84 -6.14 -807.48 1447.04 -11.01 6.15 807.47 -241.94 1.85 21.49 2823.77 -479.67 405.98 -1925.19 14.65 -483.5 -398.65 -21.49 -2823.77 -241.93 1.84 -6.15 -807.48zm3986.37 4.78l2645.8 98.32 467.37 422.83 -78.65 2116.68 -393.89 286.1 -1543.49 -57.35 -14.94 402.03 241.79 8.98 -29.98 806.95 -1443.8 -53.66 29.98 -806.94 241.78 8.99 89.81 -2417.01 -241.77 -8.98 29.99 -806.94zm1172.02 851.61l-46.46 1250.23 963.67 35.81 46.47 -1250.23 -963.68 -35.81z"/>
   <path class="fil7" d="M23120.46 16116.4c-382.3,-229.27 -1382.72,-655.9 -8120.46,-693.91l0 5087.51c6258.39,86.33 6692.93,293.27 8120.46,693.91l0 -5087.51zm-16240.91 0c382.3,-229.27 1382.72,-655.9 8120.45,-693.91l0 5087.51c-6258.38,86.33 -6692.92,293.27 -8120.45,693.91l0 -5087.51z"/>
   <polygon class="fil11" points="7527.84,15866.18 7527.84,15606.89 7700.91,15606.89 7700.91,15650.31 7909.37,15650.31 7607.89,15517.16 7527.84,15517.16 7527.84,15304.38 7700.91,15304.38 7700.91,15391.02 7940.85,15510.37 8219.28,15371.26 8219.28,15285.04 8392.35,15285.04 8392.35,15457.49 8113.71,15597.22 8219.28,15650.31 8219.28,15606.89 8392.35,15606.89 8392.35,15866.18 8219.28,15866.18 8219.28,15822.76 7700.91,15822.76 7700.91,15866.18 "/>
   <path id="1" class="fil11" d="M7527.84 15219.19l0 -475.16 86.84 -86.64 402.11 0 64.41 68.73 138.08 -36.83 0 -45.89 173.07 0 0 259.29 -170.6 0 -2.47 -36.22 -138.08 31.9 0 104.95 138.08 0 0 -43.42 173.07 0 0 259.29 -173.07 0 0 -43.42 -518.37 0 0 43.42 -173.07 0zm173.07 -215.87l216.28 0 0 -173.07 -216.28 0 0 173.07z"/>
   <path id="2" class="fil11" d="M7527.84 14435.56l0 -345.52 173.07 0 0 42.81 518.37 -129.65 0 -43.42 173.07 0 0 258.67 -173.07 0 0 -43.42 -46.3 10.29 0 154.96 46.3 9.67 0 -42.8 173.07 0 0 258.05 -173.07 0 0 -43.42 -518.37 -129.64 0 43.42 -173.07 0zm285.63 -173.07l190.56 40.95 0 -81.9 -190.56 40.95z"/>
   <polygon id="3" class="fil11" points="7527.84,13886.93 7527.84,13627.64 7700.91,13627.64 7700.91,13671.06 7909.37,13671.06 7607.89,13537.91 7527.84,13537.91 7527.84,13325.13 7700.91,13325.13 7700.91,13411.77 7940.85,13531.12 8219.28,13392.01 8219.28,13305.79 8392.35,13305.79 8392.35,13478.24 8113.71,13617.97 8219.28,13671.06 8219.28,13627.64 8392.35,13627.64 8392.35,13886.93 8219.28,13886.93 8219.28,13843.51 7700.91,13843.51 7700.91,13886.93 "/>
   <path id="4" class="fil11" d="M7527.84 13140.54l0 -346.13 86.84 -86.22 691.45 0 86.22 86.22 0 346.13 -86.22 86.23 -691.45 0 -86.84 -86.23zm173.07 -86.84l518.37 0 0 -172.45 -518.37 0 0 172.45zm-363.01 -115.24l0 86.23 -173.07 -43.42 0 -129.65 173.07 86.84z"/>
   <polygon id="5" class="fil11" points="7527.84,12610.65 7527.84,12352.59 7700.91,12352.59 7700.91,12408.56 8106.51,12351.35 7527.84,12227.06 7527.84,12103.59 8106.51,11979.29 7700.91,11922.08 7700.91,11978.06 7527.84,11978.06 7527.84,11720.21 7700.91,11720.21 7700.91,11754.57 8392.35,11893.07 8392.35,12066.13 7859.98,12165.74 8392.35,12265.13 8392.35,12437.58 7700.91,12576.28 7700.91,12610.65 "/>
   <polygon class="fil6" points="21624.81,11565.54 22010.4,11770 22304.65,11474.56 22247.53,11895.16 22633.83,12098.16 22212.94,12153.66 22157.44,12574.56 21954.44,12188.25 21533.83,12245.38 21829.27,11951.13 "/>
   <polygon class="fil12" points="22392.8,12795.31 22392.8,13141.23 22305.96,13227.46 21923.81,13227.46 21836.97,13141.23 21836.97,12881.94 21701.36,12881.94 21701.36,13227.46 21528.29,13227.46 21528.29,12709.08 21923.81,12709.08 22010.04,12795.31 22010.04,13054.39 22219.73,13054.39 22219.73,12881.94 22133.51,12881.94 22176.31,12709.08 22305.96,12709.08 "/>
   <path id="1" class="fil12" d="M22392.8 13428.72l0 346.13 -86.84 86.22 -691.45 0 -86.22 -86.22 0 -346.13 86.22 -86.23 691.45 0 86.84 86.23zm-173.07 86.84l-518.37 0 0 172.45 518.37 0 0 -172.45z"/>
   <polygon id="2" class="fil12" points="22392.8,14060.07 22392.8,14405.99 22305.96,14492.22 21923.81,14492.22 21836.97,14405.99 21836.97,14146.7 21701.36,14146.7 21701.36,14492.22 21528.29,14492.22 21528.29,13973.84 21923.81,13973.84 22010.04,14060.07 22010.04,14319.15 22219.73,14319.15 22219.73,14146.7 22133.51,14146.7 22176.31,13973.84 22305.96,13973.84 "/>
   <polygon id="3" class="fil12" points="22392.8,14586.26 22392.8,14845.55 21528.29,14845.55 21528.29,14672.49 22219.73,14672.49 22219.73,14586.26 "/>
   <polygon class="fil6" points="21477.6,15125.53 21863.19,15329.99 22157.44,15034.55 22100.32,15455.15 22486.62,15658.15 22065.73,15713.65 22010.23,16134.55 21807.23,15748.24 21386.62,15805.37 21682.06,15511.12 "/>
  </g>
  <polygon class="fil12" points="12535.75,7054.67 13978.74,7054.67 13978.74,7544.2 13073.02,9010.47 13513.07,9010.47 13513.07,8889.39 14002.6,8766.57 14002.6,9500 12535.75,9500 12535.75,9010.47 13441.47,7544.2 13025.28,7544.2 13025.28,7667.02 12535.75,7788.09 "/>
  <polygon id="1" class="fil12" points="14486.89,7054.67 15465.96,7054.67 15709.85,7300.31 15709.85,7667.02 15220.32,7788.09 15220.32,7544.2 14732.53,7544.2 14732.53,8033.15 15465.96,8033.15 15709.85,8277.04 15709.85,9256.11 15465.96,9500 14486.89,9500 14243,9256.11 14243,8889.39 14732.53,8766.57 14732.53,9010.47 15220.32,9010.47 15220.32,8522.68 14486.89,8522.68 14243,8277.04 14243,7300.31 "/>
  <polygon id="2" class="fil12" points="15972.37,7054.67 17438.64,7054.67 17438.64,7667.02 16949.69,7667.02 16949.69,7544.2 16582.98,7544.2 16582.98,8033.15 17195.33,8033.15 17072.51,8522.68 16582.98,8522.68 16582.98,9010.47 16975.3,9010.47 16975.3,8889.39 17464.25,8889.39 17464.25,9500 15972.37,9500 15972.37,9010.47 16095.19,9010.47 16095.19,7544.2 15972.37,7544.2 "/>
 </g>
</svg>
